<svg xmlns="http://www.w3.org/2000/svg" xmlns:xlink="http://www.w3.org/1999/xlink" width="2000" zoomAndPan="magnify" viewBox="0 0 1500 1499.999933" height="2000" preserveAspectRatio="xMidYMid meet" version="1.0"><defs><clipPath id="56e22992f1"><path d="M 127.8125 127.8125 L 1372.1875 127.8125 L 1372.1875 1372.1875 L 127.8125 1372.1875 Z M 127.8125 127.8125 " clip-rule="nonzero"/></clipPath><clipPath id="aded69ea3a"><path d="M 202.8125 127.8125 L 1297.1875 127.8125 C 1338.609375 127.8125 1372.1875 161.390625 1372.1875 202.8125 L 1372.1875 1297.1875 C 1372.1875 1338.609375 1338.609375 1372.1875 1297.1875 1372.1875 L 202.8125 1372.1875 C 161.390625 1372.1875 127.8125 1338.609375 127.8125 1297.1875 L 127.8125 202.8125 C 127.8125 161.390625 161.390625 127.8125 202.8125 127.8125 Z M 202.8125 127.8125 " clip-rule="nonzero"/></clipPath><clipPath id="c0158424fd"><path d="M 0.8125 0.8125 L 1245.1875 0.8125 L 1245.1875 1245.1875 L 0.8125 1245.1875 Z M 0.8125 0.8125 " clip-rule="nonzero"/></clipPath><clipPath id="8788fcfeba"><path d="M 75.8125 0.8125 L 1170.1875 0.8125 C 1211.609375 0.8125 1245.1875 34.390625 1245.1875 75.8125 L 1245.1875 1170.1875 C 1245.1875 1211.609375 1211.609375 1245.1875 1170.1875 1245.1875 L 75.8125 1245.1875 C 34.390625 1245.1875 0.8125 1211.609375 0.8125 1170.1875 L 0.8125 75.8125 C 0.8125 34.390625 34.390625 0.8125 75.8125 0.8125 Z M 75.8125 0.8125 " clip-rule="nonzero"/></clipPath><clipPath id="6630931ec8"><rect x="0" width="1246" y="0" height="1246"/></clipPath><clipPath id="0ef20b6dda"><path d="M 211 215 L 1064 215 L 1064 1272 L 211 1272 Z M 211 215 " clip-rule="nonzero"/></clipPath><clipPath id="241b19d3d8"><path d="M 188.082031 1092.363281 L 779.4375 191.230469 L 1087.847656 393.621094 L 496.488281 1294.753906 Z M 188.082031 1092.363281 " clip-rule="nonzero"/></clipPath><clipPath id="a9a9311cdf"><path d="M 221.820312 1040.945312 L 745.46875 242.992188 C 754.417969 229.355469 768.417969 219.832031 784.386719 216.519531 C 800.359375 213.203125 816.992188 216.367188 830.628906 225.316406 L 1036.203125 360.222656 C 1049.839844 369.171875 1059.363281 383.171875 1062.679688 399.140625 C 1065.992188 415.113281 1062.828125 431.746094 1053.878906 445.382812 L 530.230469 1243.335938 C 521.28125 1256.972656 507.28125 1266.496094 491.3125 1269.8125 C 475.34375 1273.125 458.710938 1269.960938 445.074219 1261.011719 L 239.496094 1126.105469 C 225.859375 1117.15625 216.335938 1103.15625 213.023438 1087.1875 C 209.707031 1071.21875 212.875 1054.582031 221.820312 1040.945312 Z M 221.820312 1040.945312 " clip-rule="nonzero"/></clipPath><clipPath id="81c2d53854"><path d="M 0 0 L 853 0 L 853 1057 L 0 1057 Z M 0 0 " clip-rule="nonzero"/></clipPath><clipPath id="c6f6b3910d"><path d="M -22.917969 877.363281 L 568.4375 -23.769531 L 876.847656 178.621094 L 285.488281 1079.753906 Z M -22.917969 877.363281 " clip-rule="nonzero"/></clipPath><clipPath id="868fa19c24"><path d="M 10.820312 825.945312 L 534.46875 27.992188 C 543.417969 14.355469 557.417969 4.832031 573.386719 1.519531 C 589.359375 -1.796875 605.992188 1.367188 619.628906 10.316406 L 825.203125 145.222656 C 838.839844 154.171875 848.363281 168.171875 851.679688 184.140625 C 854.992188 200.113281 851.828125 216.746094 842.878906 230.382812 L 319.230469 1028.335938 C 310.28125 1041.972656 296.28125 1051.496094 280.3125 1054.8125 C 264.34375 1058.125 247.710938 1054.960938 234.074219 1046.011719 L 28.496094 911.105469 C 14.859375 902.15625 5.335938 888.15625 2.023438 872.1875 C -1.292969 856.21875 1.875 839.582031 10.820312 825.945312 Z M 10.820312 825.945312 " clip-rule="nonzero"/></clipPath><clipPath id="953bc19469"><rect x="0" width="853" y="0" height="1057"/></clipPath><clipPath id="19365e1365"><path d="M 836.925781 832.257812 L 1225.910156 832.257812 L 1225.910156 1221.242188 L 836.925781 1221.242188 Z M 836.925781 832.257812 " clip-rule="nonzero"/></clipPath><clipPath id="ae804a7936"><path d="M 1031.417969 832.257812 C 924.003906 832.257812 836.925781 919.335938 836.925781 1026.75 C 836.925781 1134.167969 924.003906 1221.242188 1031.417969 1221.242188 C 1138.835938 1221.242188 1225.910156 1134.167969 1225.910156 1026.75 C 1225.910156 919.335938 1138.835938 832.257812 1031.417969 832.257812 Z M 1031.417969 832.257812 " clip-rule="nonzero"/></clipPath><clipPath id="a9f9e840ea"><path d="M 0.925781 0.257812 L 389.910156 0.257812 L 389.910156 389.242188 L 0.925781 389.242188 Z M 0.925781 0.257812 " clip-rule="nonzero"/></clipPath><clipPath id="2091f2125f"><path d="M 195.417969 0.257812 C 88.003906 0.257812 0.925781 87.335938 0.925781 194.75 C 0.925781 302.167969 88.003906 389.242188 195.417969 389.242188 C 302.835938 389.242188 389.910156 302.167969 389.910156 194.75 C 389.910156 87.335938 302.835938 0.257812 195.417969 0.257812 Z M 195.417969 0.257812 " clip-rule="nonzero"/></clipPath><clipPath id="794a31a726"><rect x="0" width="390" y="0" height="390"/></clipPath></defs><g clip-path="url(#56e22992f1)"><g clip-path="url(#aded69ea3a)"><g transform="matrix(1, 0, 0, 1, 127, 127)"><g clip-path="url(#6630931ec8)"><g clip-path="url(#c0158424fd)"><g clip-path="url(#8788fcfeba)"><path fill="#033982" d="M 0.8125 0.8125 L 1245.1875 0.8125 L 1245.1875 1245.1875 L 0.8125 1245.1875 Z M 0.8125 0.8125 " fill-opacity="1" fill-rule="nonzero"/></g></g></g></g></g></g><g clip-path="url(#0ef20b6dda)"><g clip-path="url(#241b19d3d8)"><g clip-path="url(#a9a9311cdf)"><g transform="matrix(1, 0, 0, 1, 211, 215)"><g clip-path="url(#953bc19469)"><g clip-path="url(#81c2d53854)"><g clip-path="url(#c6f6b3910d)"><g clip-path="url(#868fa19c24)"><path fill="#ffffff" d="M -22.917969 877.363281 L 568.4375 -23.769531 L 876.847656 178.621094 L 285.488281 1079.753906 Z M -22.917969 877.363281 " fill-opacity="1" fill-rule="nonzero"/></g></g></g></g></g></g></g></g><g clip-path="url(#19365e1365)"><g clip-path="url(#ae804a7936)"><g transform="matrix(1, 0, 0, 1, 836, 832)"><g clip-path="url(#794a31a726)"><g clip-path="url(#a9f9e840ea)"><g clip-path="url(#2091f2125f)"><path fill="#ffffff" d="M 0.925781 0.257812 L 389.910156 0.257812 L 389.910156 389.242188 L 0.925781 389.242188 Z M 0.925781 0.257812 " fill-opacity="1" fill-rule="nonzero"/></g></g></g></g></g></g></svg>